<?xml version="1.0" encoding="UTF-8"?>
<!DOCTYPE svg PUBLIC "-//W3C//DTD SVG 1.1//EN" "http://www.w3.org/Graphics/SVG/1.1/DTD/svg11.dtd">
<svg xmlns="http://www.w3.org/2000/svg" version="1.1" width="512px" height="512px" style="shape-rendering:geometricPrecision; text-rendering:geometricPrecision; image-rendering:optimizeQuality; fill-rule:evenodd; clip-rule:evenodd" xmlns:xlink="http://www.w3.org/1999/xlink">
<g><path style="opacity:0.958" fill="#272626" d="M 256.5,101.5 C 256.735,102.097 257.235,102.43 258,102.5C 263.612,99.0552 268.446,94.7219 272.5,89.5C 277.735,84.0211 282.735,78.3544 287.5,72.5C 289.82,70.5808 292.153,68.5808 294.5,66.5C 296.668,63.5001 299.334,61.0001 302.5,59C 353.949,28.0732 404.615,29.0732 454.5,62C 501.883,101.647 517.383,151.48 501,211.5C 499.249,215.61 497.415,219.61 495.5,223.5C 494.069,224.78 493.402,226.447 493.5,228.5C 489.257,237.054 484.257,245.054 478.5,252.5C 477.094,252.973 476.427,253.973 476.5,255.5C 438.536,294.632 400.369,333.632 362,372.5C 340.215,398.187 317.381,423.021 293.5,447C 286.167,453 278.833,459 271.5,465C 261.538,472.726 251.204,473.392 240.5,467C 177.279,402.446 113.446,338.613 49,275.5C 34.262,259.75 22.262,242.083 13,222.5C -5.83303,172.17 1.5003,126.17 35,84.5C 39.0356,80.2964 43.2022,76.2964 47.5,72.5C 51.1464,70.1829 54.4797,67.5162 57.5,64.5C 87.9855,41.1289 122.319,32.6289 160.5,39C 183.004,43.7543 203.337,53.0877 221.5,67C 233.035,78.702 244.702,90.202 256.5,101.5 Z M 130.5,47.5 C 134.167,47.5 137.833,47.5 141.5,47.5C 126.671,56.4159 111.671,65.0826 96.5,73.5C 107.549,64.45 118.882,55.7833 130.5,47.5 Z M 372.5,47.5 C 373.5,47.5 374.5,47.5 375.5,47.5C 370.498,51.0031 365.165,54.0031 359.5,56.5C 363.659,53.2533 367.992,50.2533 372.5,47.5 Z M 393.5,48.5 C 396.761,49.3778 400.094,50.0445 403.5,50.5C 363.167,74.3355 322.501,97.6689 281.5,120.5C 318.833,96.5 356.167,72.5 393.5,48.5 Z M 158.5,50.5 C 160.099,50.2322 161.432,50.5655 162.5,51.5C 152.13,58.0186 141.463,64.0186 130.5,69.5C 139.281,62.3916 148.614,56.0583 158.5,50.5 Z M 102.5,51.5 C 97.3351,55.5863 91.6685,58.9196 85.5,61.5C 88.5,58.8333 91.5,56.1667 94.5,53.5C 96.9925,52.2264 99.6592,51.5597 102.5,51.5 Z M 359.5,56.5 C 359.027,57.9063 358.027,58.573 356.5,58.5C 356.973,57.0937 357.973,56.427 359.5,56.5 Z M 188.5,61.5 C 189.71,61.9321 190.71,62.5987 191.5,63.5C 179.428,70.8921 167.095,77.8921 154.5,84.5C 165.451,76.3512 176.784,68.6845 188.5,61.5 Z M 438.5,64.5 C 439.833,65.5 441.167,66.5 442.5,67.5C 409.331,87.5883 375.664,106.922 341.5,125.5C 373.544,104.805 405.878,84.4721 438.5,64.5 Z M 130.5,69.5 C 130.167,70.1667 129.833,70.8333 129.5,71.5C 128.833,71.5 128.167,71.5 127.5,71.5C 127.973,70.0937 128.973,69.427 130.5,69.5 Z M 201.5,69.5 C 202.5,69.8333 203.167,70.5 203.5,71.5C 195.336,76.4166 187.003,81.0833 178.5,85.5C 185.992,79.9202 193.659,74.5869 201.5,69.5 Z M 451.5,74.5 C 452.492,74.3284 453.158,74.6618 453.5,75.5C 446.658,79.4216 439.658,83.0883 432.5,86.5C 438.628,82.2639 444.962,78.2639 451.5,74.5 Z M 213.5,78.5 C 214.167,78.8333 214.833,79.1667 215.5,79.5C 205.833,85.6695 195.833,91.3361 185.5,96.5C 194.485,90.0043 203.819,84.0043 213.5,78.5 Z M 461.5,82.5 C 462.167,83.8333 463.167,84.8333 464.5,85.5C 431.998,105.255 398.998,124.255 365.5,142.5C 397.156,122.003 429.156,102.003 461.5,82.5 Z M 154.5,84.5 C 154.027,85.9063 153.027,86.573 151.5,86.5C 151.973,85.0937 152.973,84.427 154.5,84.5 Z M 178.5,85.5 C 178.027,86.9063 177.027,87.573 175.5,87.5C 175.973,86.0937 176.973,85.427 178.5,85.5 Z M 223.5,86.5 C 224.5,86.8333 225.167,87.5 225.5,88.5C 221.167,90.5 216.833,92.5 212.5,94.5C 215.99,91.5887 219.656,88.922 223.5,86.5 Z M 432.5,86.5 C 431.341,88.2503 429.674,89.2503 427.5,89.5C 428.659,87.7497 430.326,86.7497 432.5,86.5 Z M 427.5,89.5 C 427.027,90.9063 426.027,91.573 424.5,91.5C 424.973,90.0937 425.973,89.427 427.5,89.5 Z M 471.5,93.5 C 471.5,93.8333 471.5,94.1667 471.5,94.5C 471.158,95.3382 470.492,95.6716 469.5,95.5C 469.833,94.5 470.5,93.8333 471.5,93.5 Z M 212.5,94.5 C 212.027,95.9063 211.027,96.573 209.5,96.5C 209.973,95.0937 210.973,94.427 212.5,94.5 Z M 48.5,95.5 C 42.8619,100.321 36.8619,104.654 30.5,108.5C 31.1667,106.833 31.8333,105.167 32.5,103.5C 37.8333,100.833 43.1667,98.1667 48.5,95.5 Z M 233.5,95.5 C 234.167,95.5 234.5,95.8333 234.5,96.5C 227.328,101.589 219.661,105.923 211.5,109.5C 218.487,104.337 225.82,99.6703 233.5,95.5 Z M 467.5,96.5 C 467.027,97.9063 466.027,98.573 464.5,98.5C 464.973,97.0937 465.973,96.427 467.5,96.5 Z M 477.5,103.5 C 478.167,103.5 478.5,103.833 478.5,104.5C 477.167,104.833 475.833,105.167 474.5,105.5C 474.973,104.094 475.973,103.427 477.5,103.5 Z M 242.5,104.5 C 244.167,105.5 245.5,106.833 246.5,108.5C 223.332,122.921 199.665,136.588 175.5,149.5C 197.538,134.141 219.871,119.141 242.5,104.5 Z M 472.5,106.5 C 472.027,107.906 471.027,108.573 469.5,108.5C 469.973,107.094 470.973,106.427 472.5,106.5 Z M 211.5,109.5 C 211.027,110.906 210.027,111.573 208.5,111.5C 208.973,110.094 209.973,109.427 211.5,109.5 Z M 467.5,109.5 C 467.027,110.906 466.027,111.573 464.5,111.5C 464.973,110.094 465.973,109.427 467.5,109.5 Z M 483.5,112.5 C 484.167,113.833 484.833,115.167 485.5,116.5C 461.5,129.833 437.5,143.167 413.5,156.5C 436.544,141.472 459.878,126.805 483.5,112.5 Z M 38.5,119.5 C 32.5378,123.821 26.5378,128.155 20.5,132.5C 20.4326,131.041 20.7659,129.708 21.5,128.5C 27.0353,125.233 32.7019,122.233 38.5,119.5 Z M 281.5,120.5 C 281.027,121.906 280.027,122.573 278.5,122.5C 278.973,121.094 279.973,120.427 281.5,120.5 Z M 341.5,125.5 C 341.027,126.906 340.027,127.573 338.5,127.5C 338.973,126.094 339.973,125.427 341.5,125.5 Z M 489.5,125.5 C 489.833,127.5 490.167,129.5 490.5,131.5C 451.501,154.669 412.168,177.335 372.5,199.5C 410.985,174.087 449.985,149.42 489.5,125.5 Z M 365.5,142.5 C 365.027,143.906 364.027,144.573 362.5,144.5C 362.973,143.094 363.973,142.427 365.5,142.5 Z M 493.5,142.5 C 494.451,143.919 494.784,145.585 494.5,147.5C 461.004,167.083 427.338,186.416 393.5,205.5C 426.488,184.003 459.821,163.003 493.5,142.5 Z M 39.5,147.5 C 39.5,147.833 39.5,148.167 39.5,148.5C 31.308,154.093 22.9747,159.427 14.5,164.5C 14.5,163.5 14.5,162.5 14.5,161.5C 22.699,156.568 31.0323,151.901 39.5,147.5 Z M 175.5,149.5 C 175.027,150.906 174.027,151.573 172.5,151.5C 172.973,150.094 173.973,149.427 175.5,149.5 Z M 413.5,156.5 C 413.027,157.906 412.027,158.573 410.5,158.5C 410.973,157.094 411.973,156.427 413.5,156.5 Z M 496.5,158.5 C 496.5,159.167 496.5,159.833 496.5,160.5C 488.301,165.432 479.968,170.099 471.5,174.5C 479.627,168.931 487.961,163.598 496.5,158.5 Z M 408.5,159.5 C 408.027,160.906 407.027,161.573 405.5,161.5C 405.973,160.094 406.973,159.427 408.5,159.5 Z M 37.5,164.5 C 37.5,164.833 37.5,165.167 37.5,165.5C 36.609,166.11 35.609,166.443 34.5,166.5C 34.9731,165.094 35.9731,164.427 37.5,164.5 Z M 34.5,166.5 C 28.3777,171.613 21.7111,175.946 14.5,179.5C 14.5,178.5 14.5,177.5 14.5,176.5C 21.1667,173.167 27.8333,169.833 34.5,166.5 Z M 496.5,172.5 C 496.5,173.5 496.5,174.5 496.5,175.5C 485.633,181.766 474.633,187.766 463.5,193.5C 474.21,186.139 485.21,179.139 496.5,172.5 Z M 469.5,175.5 C 469.027,176.906 468.027,177.573 466.5,177.5C 466.973,176.094 467.973,175.427 469.5,175.5 Z M 38.5,178.5 C 38.5,179.167 38.5,179.833 38.5,180.5C 31.1667,184.833 23.8333,189.167 16.5,193.5C 16.5,192.833 16.5,192.167 16.5,191.5C 23.4681,186.678 30.8014,182.344 38.5,178.5 Z M 159.5,184.5 C 159.027,185.906 158.027,186.573 156.5,186.5C 156.973,185.094 157.973,184.427 159.5,184.5 Z M 101.5,185.5 C 101.027,186.906 100.027,187.573 98.5,187.5C 98.9731,186.094 99.9731,185.427 101.5,185.5 Z M 156.5,186.5 C 120.682,210.247 84.3483,233.247 47.5,255.5C 46.1667,253.833 44.8333,252.167 43.5,250.5C 81.0044,228.914 118.671,207.58 156.5,186.5 Z M 98.5,187.5 C 84.8523,197.327 70.8523,206.66 56.5,215.5C 56.6287,213.784 56.962,212.117 57.5,210.5C 71.0322,202.568 84.6989,194.901 98.5,187.5 Z M 494.5,188.5 C 494.371,190.216 494.038,191.883 493.5,193.5C 474.833,203.833 456.167,214.167 437.5,224.5C 456.295,212.264 475.295,200.264 494.5,188.5 Z M 463.5,193.5 C 462.341,195.25 460.674,196.25 458.5,196.5C 459.659,194.75 461.326,193.75 463.5,193.5 Z M 458.5,196.5 C 458.027,197.906 457.027,198.573 455.5,198.5C 455.973,197.094 456.973,196.427 458.5,196.5 Z M 30.5,198.5 C 27.3495,201.579 23.6829,203.913 19.5,205.5C 19.5,205.167 19.5,204.833 19.5,204.5C 22.9988,202.25 26.6654,200.25 30.5,198.5 Z M 372.5,199.5 C 371.341,201.25 369.674,202.25 367.5,202.5C 368.659,200.75 370.326,199.75 372.5,199.5 Z M 50.5,200.5 C 50.0269,201.906 49.0269,202.573 47.5,202.5C 47.9731,201.094 48.9731,200.427 50.5,200.5 Z M 45.5,203.5 C 45.0269,204.906 44.0269,205.573 42.5,205.5C 42.9731,204.094 43.9731,203.427 45.5,203.5 Z M 42.5,205.5 C 36.3774,210.068 30.0441,214.401 23.5,218.5C 23.4431,217.391 23.1098,216.391 22.5,215.5C 29.1667,212.167 35.8333,208.833 42.5,205.5 Z M 393.5,205.5 C 393.027,206.906 392.027,207.573 390.5,207.5C 390.973,206.094 391.973,205.427 393.5,205.5 Z M 47.5,216.5 C 49.3792,217.341 51.3792,217.675 53.5,217.5C 46.5505,222.982 39.2172,227.982 31.5,232.5C 30.1103,231.101 29.1103,229.434 28.5,227.5C 34.6343,223.596 40.9677,219.929 47.5,216.5 Z M 170.5,219.5 C 169.341,221.25 167.674,222.25 165.5,222.5C 166.659,220.75 168.326,219.75 170.5,219.5 Z M 165.5,222.5 C 134.512,242.664 103.178,262.331 71.5,281.5C 70.1667,280.833 69.1667,279.833 68.5,278.5C 100.335,259.079 132.668,240.412 165.5,222.5 Z M 437.5,224.5 C 437.027,225.906 436.027,226.573 434.5,226.5C 434.973,225.094 435.973,224.427 437.5,224.5 Z M 432.5,227.5 C 432.027,228.906 431.027,229.573 429.5,229.5C 429.973,228.094 430.973,227.427 432.5,227.5 Z M 53.5,232.5 C 53.0269,233.906 52.0269,234.573 50.5,234.5C 50.9731,233.094 51.9731,232.427 53.5,232.5 Z M 48.5,235.5 C 47.3406,237.25 45.674,238.25 43.5,238.5C 44.6594,236.75 46.326,235.75 48.5,235.5 Z M 43.5,238.5 C 41.8525,240.326 39.8525,241.66 37.5,242.5C 37.5,242.167 37.5,241.833 37.5,241.5C 39.1815,239.992 41.1815,238.992 43.5,238.5 Z M 189.5,239.5 C 188.341,241.25 186.674,242.25 184.5,242.5C 185.659,240.75 187.326,239.75 189.5,239.5 Z M 184.5,242.5 C 153.54,262.653 122.206,282.32 90.5,301.5C 89.5,300.167 88.5,298.833 87.5,297.5C 119.698,278.902 152.032,260.568 184.5,242.5 Z M 472.5,242.5 C 471.529,244.483 470.529,246.483 469.5,248.5C 452.167,258.167 434.833,267.833 417.5,277.5C 435.317,265.087 453.651,253.421 472.5,242.5 Z M 253.5,261.5 C 253.027,262.906 252.027,263.573 250.5,263.5C 250.973,262.094 251.973,261.427 253.5,261.5 Z M 250.5,263.5 C 210.79,289.194 170.79,314.528 130.5,339.5C 129.167,337.833 127.833,336.167 126.5,334.5C 167.535,310.316 208.868,286.649 250.5,263.5 Z M 108.5,272.5 C 108.027,273.906 107.027,274.573 105.5,274.5C 105.973,273.094 106.973,272.427 108.5,272.5 Z M 103.5,275.5 C 95.8445,280.997 87.8445,285.997 79.5,290.5C 79.5,290.167 79.5,289.833 79.5,289.5C 87.1639,284.332 95.1639,279.665 103.5,275.5 Z M 415.5,278.5 C 415.027,279.906 414.027,280.573 412.5,280.5C 412.973,279.094 413.973,278.427 415.5,278.5 Z M 194.5,279.5 C 194.027,280.906 193.027,281.573 191.5,281.5C 191.973,280.094 192.973,279.427 194.5,279.5 Z M 191.5,281.5 C 167.372,297.069 143.038,312.403 118.5,327.5C 117.167,326.833 116.167,325.833 115.5,324.5C 140.85,310.139 166.184,295.805 191.5,281.5 Z M 248.5,283.5 C 248.027,284.906 247.027,285.573 245.5,285.5C 245.973,284.094 246.973,283.427 248.5,283.5 Z M 245.5,285.5 C 244.341,287.25 242.674,288.25 240.5,288.5C 241.659,286.75 243.326,285.75 245.5,285.5 Z M 240.5,288.5 C 208.207,309.653 175.541,330.319 142.5,350.5C 140.833,349.5 139.5,348.167 138.5,346.5C 172.26,326.739 206.26,307.405 240.5,288.5 Z M 106.5,304.5 C 106.027,305.906 105.027,306.573 103.5,306.5C 103.973,305.094 104.973,304.427 106.5,304.5 Z M 101.5,307.5 C 101.167,308.5 100.5,309.167 99.5,309.5C 98.8333,309.5 98.5,309.167 98.5,308.5C 99.391,307.89 100.391,307.557 101.5,307.5 Z M 123.5,307.5 C 123.027,308.906 122.027,309.573 120.5,309.5C 120.973,308.094 121.973,307.427 123.5,307.5 Z M 118.5,310.5 C 117.341,312.25 115.674,313.25 113.5,313.5C 114.659,311.75 116.326,310.75 118.5,310.5 Z M 410.5,310.5 C 407.833,313.833 404.833,316.833 401.5,319.5C 392.634,324.766 383.634,329.766 374.5,334.5C 386.148,326.007 398.148,318.007 410.5,310.5 Z M 113.5,313.5 C 112.341,315.25 110.674,316.25 108.5,316.5C 109.659,314.75 111.326,313.75 113.5,313.5 Z M 239.5,335.5 C 238.341,337.25 236.674,338.25 234.5,338.5C 235.659,336.75 237.326,335.75 239.5,335.5 Z M 372.5,335.5 C 372.027,336.906 371.027,337.573 369.5,337.5C 369.973,336.094 370.973,335.427 372.5,335.5 Z M 234.5,338.5 C 213.167,352.167 191.833,365.833 170.5,379.5C 169.167,378.833 168.167,377.833 167.5,376.5C 189.698,363.568 212.032,350.902 234.5,338.5 Z M 181.5,340.5 C 180.341,342.25 178.674,343.25 176.5,343.5C 177.659,341.75 179.326,340.75 181.5,340.5 Z M 205.5,340.5 C 204.341,342.25 202.674,343.25 200.5,343.5C 201.659,341.75 203.326,340.75 205.5,340.5 Z M 176.5,343.5 C 168.373,349.069 160.039,354.402 151.5,359.5C 150.833,359.5 150.5,359.167 150.5,358.5C 158.645,352.709 167.312,347.709 176.5,343.5 Z M 200.5,343.5 C 187.511,352.331 174.178,360.664 160.5,368.5C 159.833,368.167 159.167,367.833 158.5,367.5C 172.166,358.998 186.166,350.998 200.5,343.5 Z M 272.5,356.5 C 272.027,357.906 271.027,358.573 269.5,358.5C 269.973,357.094 270.973,356.427 272.5,356.5 Z M 269.5,358.5 C 245.373,374.402 221.04,390.069 196.5,405.5C 194.833,404.5 193.5,403.167 192.5,401.5C 218.005,386.913 243.672,372.58 269.5,358.5 Z M 362.5,358.5 C 361.167,360.167 359.833,361.833 358.5,363.5C 356.5,364.167 354.5,364.833 352.5,365.5C 355.275,362.395 358.608,360.062 362.5,358.5 Z M 352.5,365.5 C 352.027,366.906 351.027,367.573 349.5,367.5C 349.973,366.094 350.973,365.427 352.5,365.5 Z M 287.5,378.5 C 264.11,394.552 240.443,410.219 216.5,425.5C 214.833,424.5 213.5,423.167 212.5,421.5C 237.237,406.775 262.237,392.442 287.5,378.5 Z M 278.5,402.5 C 261.465,414.857 244.132,426.857 226.5,438.5C 225.167,436.833 223.833,435.167 222.5,433.5C 241.167,423.167 259.833,412.833 278.5,402.5 Z M 217.5,405.5 C 216.341,407.25 214.674,408.25 212.5,408.5C 213.659,406.75 215.326,405.75 217.5,405.5 Z M 212.5,408.5 C 210.371,410.95 207.704,412.617 204.5,413.5C 203.833,413.5 203.5,413.167 203.5,412.5C 206.352,410.909 209.352,409.576 212.5,408.5 Z M 275.5,422.5 C 263.138,432.188 250.472,441.521 237.5,450.5C 235.833,449.5 234.5,448.167 233.5,446.5C 247.166,437.998 261.166,429.998 275.5,422.5 Z"/></g>
<g><path style="opacity:0.955" fill="#cb4b5f" d="M 130.5,47.5 C 118.882,55.7833 107.549,64.45 96.5,73.5C 111.671,65.0826 126.671,56.4159 141.5,47.5C 146.874,47.523 152.207,48.023 157.5,49C 158.056,49.3826 158.389,49.8826 158.5,50.5C 148.614,56.0583 139.281,62.3916 130.5,69.5C 128.973,69.427 127.973,70.0937 127.5,71.5C 93.872,75.3836 68.372,91.717 51,120.5C 46.609,128.847 43.109,137.513 40.5,146.5C 39.8333,146.5 39.5,146.833 39.5,147.5C 31.0323,151.901 22.699,156.568 14.5,161.5C 14.286,154.344 15.1194,147.344 17,140.5C 17.3874,137.401 18.5541,134.734 20.5,132.5C 26.5378,128.155 32.5378,123.821 38.5,119.5C 32.7019,122.233 27.0353,125.233 21.5,128.5C 22.6365,121.849 25.3031,115.516 29.5,109.5C 30.1667,109.5 30.5,109.167 30.5,108.5C 36.8619,104.654 42.8619,100.321 48.5,95.5C 43.1667,98.1667 37.8333,100.833 32.5,103.5C 46.9277,79.0699 67.5944,62.4032 94.5,53.5C 91.5,56.1667 88.5,58.8333 85.5,61.5C 91.6685,58.9196 97.3351,55.5863 102.5,51.5C 103.492,51.6716 104.158,51.3382 104.5,50.5C 113.076,47.3431 121.743,46.3431 130.5,47.5 Z M 130.5,47.5 C 134.167,47.5 137.833,47.5 141.5,47.5C 126.671,56.4159 111.671,65.0826 96.5,73.5C 107.549,64.45 118.882,55.7833 130.5,47.5 Z"/></g>
<g><path style="opacity:0.967" fill="#cc4b5f" d="M 372.5,47.5 C 367.992,50.2533 363.659,53.2533 359.5,56.5C 365.165,54.0031 370.498,51.0031 375.5,47.5C 381.69,47.1771 387.69,47.5104 393.5,48.5C 356.167,72.5 318.833,96.5 281.5,120.5C 322.501,97.6689 363.167,74.3355 403.5,50.5C 416.244,52.8506 427.911,57.5173 438.5,64.5C 405.878,84.4721 373.544,104.805 341.5,125.5C 375.664,106.922 409.331,87.5883 442.5,67.5C 445.09,68.1283 447.423,69.295 449.5,71C 450.823,71.8159 451.489,72.9826 451.5,74.5C 444.962,78.2639 438.628,82.2639 432.5,86.5C 439.658,83.0883 446.658,79.4216 453.5,75.5C 456.764,77.0941 459.431,79.4275 461.5,82.5C 429.156,102.003 397.156,122.003 365.5,142.5C 398.998,124.255 431.998,105.255 464.5,85.5C 467.55,87.5491 469.883,90.2157 471.5,93.5C 470.5,93.8333 469.833,94.5 469.5,95.5C 470.492,95.6716 471.158,95.3382 471.5,94.5C 475.041,96.3909 477.041,99.3909 477.5,103.5C 475.973,103.427 474.973,104.094 474.5,105.5C 475.833,105.167 477.167,104.833 478.5,104.5C 481.164,106.484 482.831,109.151 483.5,112.5C 459.878,126.805 436.544,141.472 413.5,156.5C 437.5,143.167 461.5,129.833 485.5,116.5C 487.592,119.088 488.925,122.088 489.5,125.5C 449.985,149.42 410.985,174.087 372.5,199.5C 412.168,177.335 451.501,154.669 490.5,131.5C 492.573,134.043 493.906,137.043 494.5,140.5C 494.137,141.183 493.804,141.85 493.5,142.5C 459.821,163.003 426.488,184.003 393.5,205.5C 427.338,186.416 461.004,167.083 494.5,147.5C 495.222,147.918 495.722,148.584 496,149.5C 496.498,152.482 496.665,155.482 496.5,158.5C 487.961,163.598 479.627,168.931 471.5,174.5C 479.968,170.099 488.301,165.432 496.5,160.5C 496.5,164.5 496.5,168.5 496.5,172.5C 485.21,179.139 474.21,186.139 463.5,193.5C 474.633,187.766 485.633,181.766 496.5,175.5C 496.574,179.984 495.907,184.317 494.5,188.5C 475.295,200.264 456.295,212.264 437.5,224.5C 456.167,214.167 474.833,203.833 493.5,193.5C 490.147,210.897 483.48,226.897 473.5,241.5C 472.833,241.5 472.5,241.833 472.5,242.5C 453.651,253.421 435.317,265.087 417.5,277.5C 434.833,267.833 452.167,258.167 469.5,248.5C 462.777,259.393 454.11,268.559 443.5,276C 443.728,276.399 444.062,276.565 444.5,276.5C 433.806,287.86 422.806,298.86 411.5,309.5C 410.833,309.5 410.5,309.833 410.5,310.5C 398.148,318.007 386.148,326.007 374.5,334.5C 383.634,329.766 392.634,324.766 401.5,319.5C 389.827,333.173 377.161,345.839 363.5,357.5C 362.833,357.5 362.5,357.833 362.5,358.5C 358.608,360.062 355.275,362.395 352.5,365.5C 354.5,364.833 356.5,364.167 358.5,363.5C 344.414,377.91 330.747,391.91 317.5,405.5C 300.285,422.881 283.285,440.381 266.5,458C 261.942,461.189 256.942,462.522 251.5,462C 248.352,459.727 245.019,457.727 241.5,456C 239.536,454.549 238.203,452.716 237.5,450.5C 250.472,441.521 263.138,432.188 275.5,422.5C 261.166,429.998 247.166,437.998 233.5,446.5C 230.427,444.431 228.094,441.764 226.5,438.5C 244.132,426.857 261.465,414.857 278.5,402.5C 259.833,412.833 241.167,423.167 222.5,433.5C 219.353,431.687 217.353,429.02 216.5,425.5C 240.443,410.219 264.11,394.552 287.5,378.5C 262.237,392.442 237.237,406.775 212.5,421.5C 208.833,419.833 206.167,417.167 204.5,413.5C 207.704,412.617 210.371,410.95 212.5,408.5C 209.352,409.576 206.352,410.909 203.5,412.5C 200.167,411.167 197.833,408.833 196.5,405.5C 221.04,390.069 245.373,374.402 269.5,358.5C 243.672,372.58 218.005,386.913 192.5,401.5C 189.167,400.167 186.833,397.833 185.5,394.5C 181.726,393.062 179.393,390.395 178.5,386.5C 174.626,385.631 171.959,383.297 170.5,379.5C 191.833,365.833 213.167,352.167 234.5,338.5C 212.032,350.902 189.698,363.568 167.5,376.5C 164.427,374.431 162.094,371.764 160.5,368.5C 174.178,360.664 187.511,352.331 200.5,343.5C 186.166,350.998 172.166,358.998 158.5,367.5C 155.427,365.431 153.094,362.764 151.5,359.5C 160.039,354.402 168.373,349.069 176.5,343.5C 167.312,347.709 158.645,352.709 150.5,358.5C 146.833,356.833 144.167,354.167 142.5,350.5C 175.541,330.319 208.207,309.653 240.5,288.5C 206.26,307.405 172.26,326.739 138.5,346.5C 135.236,344.906 132.569,342.573 130.5,339.5C 170.79,314.528 210.79,289.194 250.5,263.5C 208.868,286.649 167.535,310.316 126.5,334.5C 122.611,333.557 119.944,331.223 118.5,327.5C 143.038,312.403 167.372,297.069 191.5,281.5C 166.184,295.805 140.85,310.139 115.5,324.5C 112.236,322.906 109.569,320.573 107.5,317.5C 108.167,317.5 108.5,317.167 108.5,316.5C 104.163,315.837 101.163,313.504 99.5,309.5C 100.5,309.167 101.167,308.5 101.5,307.5C 100.391,307.557 99.391,307.89 98.5,308.5C 95.2358,306.906 92.5691,304.573 90.5,301.5C 122.206,282.32 153.54,262.653 184.5,242.5C 152.032,260.568 119.698,278.902 87.5,297.5C 84.2358,295.906 81.5691,293.573 79.5,290.5C 87.8445,285.997 95.8445,280.997 103.5,275.5C 95.1639,279.665 87.1639,284.332 79.5,289.5C 75.8333,287.833 73.1667,285.167 71.5,281.5C 103.178,262.331 134.512,242.664 165.5,222.5C 132.668,240.412 100.335,259.079 68.5,278.5C 65.6057,277.118 63.1057,275.118 61,272.5C 56.2624,266.94 51.7624,261.273 47.5,255.5C 84.3483,233.247 120.682,210.247 156.5,186.5C 118.671,207.58 81.0044,228.914 43.5,250.5C 40.5293,248.557 38.5293,245.891 37.5,242.5C 39.8525,241.66 41.8525,240.326 43.5,238.5C 41.1815,238.992 39.1815,239.992 37.5,241.5C 33.9932,239.634 31.9932,236.634 31.5,232.5C 39.2172,227.982 46.5505,222.982 53.5,217.5C 53.8333,217.5 54.1667,217.5 54.5,217.5C 55.1667,217.5 55.5,217.167 55.5,216.5C 56.1667,216.5 56.5,216.167 56.5,215.5C 70.8523,206.66 84.8523,197.327 98.5,187.5C 84.6989,194.901 71.0322,202.568 57.5,210.5C 55.8214,209 54.4881,207.167 53.5,205C 49.3619,204.413 47.0285,206.247 46.5,210.5C 47.1556,212.453 47.4889,214.453 47.5,216.5C 40.9677,219.929 34.6343,223.596 28.5,227.5C 26.0764,224.992 24.4097,221.992 23.5,218.5C 30.0441,214.401 36.3774,210.068 42.5,205.5C 35.8333,208.833 29.1667,212.167 22.5,215.5C 20.7234,212.495 19.7234,209.162 19.5,205.5C 23.6829,203.913 27.3495,201.579 30.5,198.5C 26.6654,200.25 22.9988,202.25 19.5,204.5C 17.4318,201.237 16.4318,197.57 16.5,193.5C 23.8333,189.167 31.1667,184.833 38.5,180.5C 39.6266,181.122 40.6266,181.955 41.5,183C 42.9437,183.781 44.277,183.614 45.5,182.5C 46.3928,179.916 46.7261,177.249 46.5,174.5C 47.8333,174.167 47.8333,173.833 46.5,173.5C 46.2213,168.405 46.5546,163.405 47.5,158.5C 48.8333,158.167 48.8333,157.833 47.5,157.5C 55.4755,118.355 78.8089,93.5213 117.5,83C 124.135,82.0281 130.801,81.3614 137.5,81C 140.129,77.8006 139.796,74.8006 136.5,72C 134.19,71.5034 131.857,71.3367 129.5,71.5C 129.833,70.8333 130.167,70.1667 130.5,69.5C 141.463,64.0186 152.13,58.0186 162.5,51.5C 166.319,51.605 169.986,52.4383 173.5,54C 178.899,55.8457 183.899,58.3457 188.5,61.5C 176.784,68.6845 165.451,76.3512 154.5,84.5C 167.095,77.8921 179.428,70.8921 191.5,63.5C 195.598,64.2719 198.931,66.2719 201.5,69.5C 193.659,74.5869 185.992,79.9202 178.5,85.5C 187.003,81.0833 195.336,76.4166 203.5,71.5C 207.913,72.3667 211.247,74.7 213.5,78.5C 203.819,84.0043 194.485,90.0043 185.5,96.5C 195.833,91.3361 205.833,85.6695 215.5,79.5C 218.784,81.117 221.451,83.4503 223.5,86.5C 219.656,88.922 215.99,91.5887 212.5,94.5C 216.833,92.5 221.167,90.5 225.5,88.5C 228.764,90.0941 231.431,92.4275 233.5,95.5C 225.82,99.6703 218.487,104.337 211.5,109.5C 219.661,105.923 227.328,101.589 234.5,96.5C 238.188,98.1884 240.855,100.855 242.5,104.5C 219.871,119.141 197.538,134.141 175.5,149.5C 199.665,136.588 223.332,122.921 246.5,108.5C 248.905,109.398 250.905,110.898 252.5,113C 253.833,113.667 255.167,113.667 256.5,113C 272.761,94.0632 291.428,78.0632 312.5,65C 317.964,61.9323 323.631,59.4323 329.5,57.5C 329.833,58.8333 330.167,58.8333 330.5,57.5C 331.492,57.6716 332.158,57.3382 332.5,56.5C 345.163,50.6998 358.496,47.6998 372.5,47.5 Z M 372.5,47.5 C 373.5,47.5 374.5,47.5 375.5,47.5C 370.498,51.0031 365.165,54.0031 359.5,56.5C 363.659,53.2533 367.992,50.2533 372.5,47.5 Z M 359.5,56.5 C 359.027,57.9063 358.027,58.573 356.5,58.5C 356.973,57.0937 357.973,56.427 359.5,56.5 Z M 188.5,61.5 C 189.71,61.9321 190.71,62.5987 191.5,63.5C 179.428,70.8921 167.095,77.8921 154.5,84.5C 165.451,76.3512 176.784,68.6845 188.5,61.5 Z M 201.5,69.5 C 202.5,69.8333 203.167,70.5 203.5,71.5C 195.336,76.4166 187.003,81.0833 178.5,85.5C 185.992,79.9202 193.659,74.5869 201.5,69.5 Z M 213.5,78.5 C 214.167,78.8333 214.833,79.1667 215.5,79.5C 205.833,85.6695 195.833,91.3361 185.5,96.5C 194.485,90.0043 203.819,84.0043 213.5,78.5 Z M 154.5,84.5 C 154.027,85.9063 153.027,86.573 151.5,86.5C 151.973,85.0937 152.973,84.427 154.5,84.5 Z M 178.5,85.5 C 178.027,86.9063 177.027,87.573 175.5,87.5C 175.973,86.0937 176.973,85.427 178.5,85.5 Z M 223.5,86.5 C 224.5,86.8333 225.167,87.5 225.5,88.5C 221.167,90.5 216.833,92.5 212.5,94.5C 215.99,91.5887 219.656,88.922 223.5,86.5 Z M 432.5,86.5 C 431.341,88.2503 429.674,89.2503 427.5,89.5C 428.659,87.7497 430.326,86.7497 432.5,86.5 Z M 427.5,89.5 C 427.027,90.9063 426.027,91.573 424.5,91.5C 424.973,90.0937 425.973,89.427 427.5,89.5 Z M 212.5,94.5 C 212.027,95.9063 211.027,96.573 209.5,96.5C 209.973,95.0937 210.973,94.427 212.5,94.5 Z M 233.5,95.5 C 234.167,95.5 234.5,95.8333 234.5,96.5C 227.328,101.589 219.661,105.923 211.5,109.5C 218.487,104.337 225.82,99.6703 233.5,95.5 Z M 467.5,96.5 C 467.027,97.9063 466.027,98.573 464.5,98.5C 464.973,97.0937 465.973,96.427 467.5,96.5 Z M 242.5,104.5 C 244.167,105.5 245.5,106.833 246.5,108.5C 223.332,122.921 199.665,136.588 175.5,149.5C 197.538,134.141 219.871,119.141 242.5,104.5 Z M 472.5,106.5 C 472.027,107.906 471.027,108.573 469.5,108.5C 469.973,107.094 470.973,106.427 472.5,106.5 Z M 211.5,109.5 C 211.027,110.906 210.027,111.573 208.5,111.5C 208.973,110.094 209.973,109.427 211.5,109.5 Z M 467.5,109.5 C 467.027,110.906 466.027,111.573 464.5,111.5C 464.973,110.094 465.973,109.427 467.5,109.5 Z M 281.5,120.5 C 281.027,121.906 280.027,122.573 278.5,122.5C 278.973,121.094 279.973,120.427 281.5,120.5 Z M 341.5,125.5 C 341.027,126.906 340.027,127.573 338.5,127.5C 338.973,126.094 339.973,125.427 341.5,125.5 Z M 365.5,142.5 C 365.027,143.906 364.027,144.573 362.5,144.5C 362.973,143.094 363.973,142.427 365.5,142.5 Z M 175.5,149.5 C 175.027,150.906 174.027,151.573 172.5,151.5C 172.973,150.094 173.973,149.427 175.5,149.5 Z M 413.5,156.5 C 413.027,157.906 412.027,158.573 410.5,158.5C 410.973,157.094 411.973,156.427 413.5,156.5 Z M 408.5,159.5 C 408.027,160.906 407.027,161.573 405.5,161.5C 405.973,160.094 406.973,159.427 408.5,159.5 Z M 469.5,175.5 C 469.027,176.906 468.027,177.573 466.5,177.5C 466.973,176.094 467.973,175.427 469.5,175.5 Z M 159.5,184.5 C 159.027,185.906 158.027,186.573 156.5,186.5C 156.973,185.094 157.973,184.427 159.5,184.5 Z M 101.5,185.5 C 101.027,186.906 100.027,187.573 98.5,187.5C 98.9731,186.094 99.9731,185.427 101.5,185.5 Z M 98.5,187.5 C 84.8523,197.327 70.8523,206.66 56.5,215.5C 56.6287,213.784 56.962,212.117 57.5,210.5C 71.0322,202.568 84.6989,194.901 98.5,187.5 Z M 463.5,193.5 C 462.341,195.25 460.674,196.25 458.5,196.5C 459.659,194.75 461.326,193.75 463.5,193.5 Z M 458.5,196.5 C 458.027,197.906 457.027,198.573 455.5,198.5C 455.973,197.094 456.973,196.427 458.5,196.5 Z M 372.5,199.5 C 371.341,201.25 369.674,202.25 367.5,202.5C 368.659,200.75 370.326,199.75 372.5,199.5 Z M 50.5,200.5 C 50.0269,201.906 49.0269,202.573 47.5,202.5C 47.9731,201.094 48.9731,200.427 50.5,200.5 Z M 45.5,203.5 C 45.0269,204.906 44.0269,205.573 42.5,205.5C 42.9731,204.094 43.9731,203.427 45.5,203.5 Z M 393.5,205.5 C 393.027,206.906 392.027,207.573 390.5,207.5C 390.973,206.094 391.973,205.427 393.5,205.5 Z M 170.5,219.5 C 169.341,221.25 167.674,222.25 165.5,222.5C 166.659,220.75 168.326,219.75 170.5,219.5 Z M 437.5,224.5 C 437.027,225.906 436.027,226.573 434.5,226.5C 434.973,225.094 435.973,224.427 437.5,224.5 Z M 432.5,227.5 C 432.027,228.906 431.027,229.573 429.5,229.5C 429.973,228.094 430.973,227.427 432.5,227.5 Z M 53.5,232.5 C 53.0269,233.906 52.0269,234.573 50.5,234.5C 50.9731,233.094 51.9731,232.427 53.5,232.5 Z M 48.5,235.5 C 47.3406,237.25 45.674,238.25 43.5,238.5C 44.6594,236.75 46.326,235.75 48.5,235.5 Z M 189.5,239.5 C 188.341,241.25 186.674,242.25 184.5,242.5C 185.659,240.75 187.326,239.75 189.5,239.5 Z M 253.5,261.5 C 253.027,262.906 252.027,263.573 250.5,263.5C 250.973,262.094 251.973,261.427 253.5,261.5 Z M 108.5,272.5 C 108.027,273.906 107.027,274.573 105.5,274.5C 105.973,273.094 106.973,272.427 108.5,272.5 Z M 415.5,278.5 C 415.027,279.906 414.027,280.573 412.5,280.5C 412.973,279.094 413.973,278.427 415.5,278.5 Z M 194.5,279.5 C 194.027,280.906 193.027,281.573 191.5,281.5C 191.973,280.094 192.973,279.427 194.5,279.5 Z M 248.5,283.5 C 248.027,284.906 247.027,285.573 245.5,285.5C 245.973,284.094 246.973,283.427 248.5,283.5 Z M 245.5,285.5 C 244.341,287.25 242.674,288.25 240.5,288.5C 241.659,286.75 243.326,285.75 245.5,285.5 Z M 106.5,304.5 C 106.027,305.906 105.027,306.573 103.5,306.5C 103.973,305.094 104.973,304.427 106.5,304.5 Z M 123.5,307.5 C 123.027,308.906 122.027,309.573 120.5,309.5C 120.973,308.094 121.973,307.427 123.5,307.5 Z M 118.5,310.5 C 117.341,312.25 115.674,313.25 113.5,313.5C 114.659,311.75 116.326,310.75 118.5,310.5 Z M 113.5,313.5 C 112.341,315.25 110.674,316.25 108.5,316.5C 109.659,314.75 111.326,313.75 113.5,313.5 Z M 239.5,335.5 C 238.341,337.25 236.674,338.25 234.5,338.5C 235.659,336.75 237.326,335.75 239.5,335.5 Z M 372.5,335.5 C 372.027,336.906 371.027,337.573 369.5,337.5C 369.973,336.094 370.973,335.427 372.5,335.5 Z M 181.5,340.5 C 180.341,342.25 178.674,343.25 176.5,343.5C 177.659,341.75 179.326,340.75 181.5,340.5 Z M 205.5,340.5 C 204.341,342.25 202.674,343.25 200.5,343.5C 201.659,341.75 203.326,340.75 205.5,340.5 Z M 272.5,356.5 C 272.027,357.906 271.027,358.573 269.5,358.5C 269.973,357.094 270.973,356.427 272.5,356.5 Z M 352.5,365.5 C 352.027,366.906 351.027,367.573 349.5,367.5C 349.973,366.094 350.973,365.427 352.5,365.5 Z M 217.5,405.5 C 216.341,407.25 214.674,408.25 212.5,408.5C 213.659,406.75 215.326,405.75 217.5,405.5 Z"/></g>
<g><path style="opacity:0.654" fill="#ba495a" d="M 57.5,64.5 C 54.4797,67.5162 51.1464,70.1829 47.5,72.5C 47.6282,70.9102 48.2949,69.5769 49.5,68.5C 51.9553,66.7033 54.622,65.37 57.5,64.5 Z"/></g>
<g><path style="opacity:0.604" fill="#b44759" d="M 294.5,66.5 C 292.153,68.5808 289.82,70.5808 287.5,72.5C 288.578,69.0922 290.911,67.0922 294.5,66.5 Z"/></g>
<g><path style="opacity:0.998" fill="#2a2727" d="M 127.5,71.5 C 128.167,71.5 128.833,71.5 129.5,71.5C 131.857,71.3367 134.19,71.5034 136.5,72C 139.796,74.8006 140.129,77.8006 137.5,81C 130.801,81.3614 124.135,82.0281 117.5,83C 78.8089,93.5213 55.4755,118.355 47.5,157.5C 47.5,157.833 47.5,158.167 47.5,158.5C 46.5546,163.405 46.2213,168.405 46.5,173.5C 46.5,173.833 46.5,174.167 46.5,174.5C 46.7261,177.249 46.3928,179.916 45.5,182.5C 44.277,183.614 42.9437,183.781 41.5,183C 40.6266,181.955 39.6266,181.122 38.5,180.5C 38.5,179.833 38.5,179.167 38.5,178.5C 38.8182,173.968 38.4849,169.634 37.5,165.5C 37.5,165.167 37.5,164.833 37.5,164.5C 38.4046,159.513 39.4046,154.513 40.5,149.5C 40.3764,148.893 40.0431,148.56 39.5,148.5C 39.5,148.167 39.5,147.833 39.5,147.5C 40.1667,147.5 40.5,147.167 40.5,146.5C 43.109,137.513 46.609,128.847 51,120.5C 68.372,91.717 93.872,75.3836 127.5,71.5 Z"/></g>
<g><path style="opacity:0.751" fill="#c7485a" d="M 272.5,89.5 C 268.446,94.7219 263.612,99.0552 258,102.5C 257.235,102.43 256.735,102.097 256.5,101.5C 261.545,97.1223 266.878,93.1223 272.5,89.5 Z"/></g>
<g><path style="opacity:0.935" fill="#cb4b5f" d="M 39.5,148.5 C 40.0431,148.56 40.3764,148.893 40.5,149.5C 39.4046,154.513 38.4046,159.513 37.5,164.5C 35.9731,164.427 34.9731,165.094 34.5,166.5C 27.8333,169.833 21.1667,173.167 14.5,176.5C 13.2092,172.601 13.2092,168.601 14.5,164.5C 22.9747,159.427 31.308,154.093 39.5,148.5 Z"/></g>
<g><path style="opacity:0.94" fill="#cc4b5f" d="M 37.5,165.5 C 38.4849,169.634 38.8182,173.968 38.5,178.5C 30.8014,182.344 23.4681,186.678 16.5,191.5C 14.8643,187.79 14.1977,183.79 14.5,179.5C 21.7111,175.946 28.3777,171.613 34.5,166.5C 35.609,166.443 36.609,166.11 37.5,165.5 Z"/></g>
<g><path style="opacity:0.95" fill="#2b2727" d="M 57.5,210.5 C 56.962,212.117 56.6287,213.784 56.5,215.5C 55.8333,215.5 55.5,215.833 55.5,216.5C 54.8333,216.5 54.5,216.833 54.5,217.5C 54.1667,217.5 53.8333,217.5 53.5,217.5C 51.3792,217.675 49.3792,217.341 47.5,216.5C 47.4889,214.453 47.1556,212.453 46.5,210.5C 47.0285,206.247 49.3619,204.413 53.5,205C 54.4881,207.167 55.8214,209 57.5,210.5 Z"/></g>
<g><path style="opacity:0.655" fill="#cb4a54" d="M 495.5,223.5 C 495.88,225.698 495.213,227.365 493.5,228.5C 493.402,226.447 494.069,224.78 495.5,223.5 Z"/></g>
<g><path style="opacity:0.031" fill="#c84f63" d="M 478.5,252.5 C 478.573,254.027 477.906,255.027 476.5,255.5C 476.427,253.973 477.094,252.973 478.5,252.5 Z"/></g>
</svg>
